<?xml version="1.0" encoding="UTF-8" standalone="no"?>
<svg
   xmlns:dc="http://purl.org/dc/elements/1.1/"
   xmlns:cc="http://creativecommons.org/ns#"
   xmlns:rdf="http://www.w3.org/1999/02/22-rdf-syntax-ns#"
   xmlns:svg="http://www.w3.org/2000/svg"
   xmlns="http://www.w3.org/2000/svg"
   id="svg925"
   version="1.1"
   width="858.88361"
   viewBox="0 0 858.8836 1306.8011"
   height="1306.8011"
   style="enable-background:new">
  <metadata
     id="metadata929">
    <rdf:RDF>
      <cc:Work
         rdf:about="">
        <dc:format>image/svg+xml</dc:format>
        <dc:type
           rdf:resource="http://purl.org/dc/dcmitype/StillImage" />
        <dc:title></dc:title>
      </cc:Work>
    </rdf:RDF>
  </metadata>
  <defs
     id="defs897">
    <linearGradient
       x1="256"
       y1="18"
       gradientTransform="matrix(1,0,0,1.076,0,-19.36)"
       x2="256"
       gradientUnits="userSpaceOnUse"
       y2="494"
       id="a">
      <stop
         id="stop892"
         offset="0"
         style="stop-color:#eaeaea" />
      <stop
         id="stop894"
         offset="1"
         style="stop-color:#f4f4f4" />
    </linearGradient>
  </defs>
  <path
     id="path909"
     style="color:#000000;display:none;fill:#ffffff;stroke:#cccccc;stroke-width:4;enable-background:accumulate"
     d="m 0.50369568,1024.8913 c -7.84199998,0 -14.54999968,5.029 -17.31999968,12.19 -0.0612,-7e-4 -0.1208,0 -0.1823,0 -7.088,0 -12.83,6.002 -12.83,13.41 0,7.404 5.746,13.41 12.83,13.41 H 0.50139568 16.831396 c 5.155,0 9.333,-4.365 9.333,-9.75 0,-4.543 -2.974,-8.363 -7,-9.445 0.001,-0.1029 0,-0.2015 0,-0.3047 0,-10.77 -8.357,-19.5 -18.67000032,-19.5 z" />
  <path
     id="path911"
     d="m 497.7037,1247.3913 c -6.349,0 -11.78,4.072 -14.02,9.867 -0.0496,-6e-4 -0.0978,0 -0.1476,0 -5.738,0 -10.39,4.86 -10.39,10.85 0,5.995 4.652,10.85 10.39,10.85 h 14.17 13.22 c 4.173,0 7.557,-3.534 7.557,-7.894 0,-3.678 -2.408,-6.771 -5.667,-7.647 10e-4,-0.083 0,-0.1632 0,-0.2467 0,-8.719 -6.766,-15.79 -15.11,-15.79 z"
     style="color:#000000;display:none;fill:none;stroke:#cccccc;stroke-width:4;enable-background:accumulate" />
  <g
     id="g923"
     transform="translate(208.8037,-139.10871)"
     style="display:none">
    <path
       id="path913"
       style="display:inline;fill:#0000ff;fill-opacity:0.08117999;stroke:#0000ff"
       d="M 166.1,576.4 H 346 c 145.3,0 166.1,20.74 166.1,165.9 v 144.2 c 0,145.2 -20.76,165.9 -166.1,165.9 H 166.1 C 20.8,1052.4 0,1032.4 0,886.9 V 742.7 C 0,597.5 20.76,576.8 166.1,576.8 Z" />
    <circle
       id="circle915"
       r="120"
       cy="238"
       transform="matrix(1.2,0,0,1.2,-51.2,528.8)"
       cx="256"
       style="color:#000000;display:inline;fill:#0000ff;fill-opacity:0.08117999;stroke:#0000ff;stroke-width:0.83329999;enable-background:accumulate" />
    <rect
       id="rect917"
       x="120"
       y="678.40002"
       width="272"
       height="272"
       style="color:#000000;display:inline;fill:#0000ff;fill-opacity:0.08117999;stroke:#0000ff;stroke-linecap:round;stroke-linejoin:round;enable-background:accumulate" />
    <rect
       id="rect919"
       x="104"
       y="694.40002"
       width="304"
       height="240"
       style="color:#000000;display:inline;fill:#0000ff;fill-opacity:0.08117999;stroke:#0000ff;stroke-linecap:round;stroke-linejoin:round;enable-background:accumulate" />
    <rect
       id="rect921"
       x="136"
       y="662.40002"
       width="240"
       height="304"
       style="color:#000000;display:inline;fill:#0000ff;fill-opacity:0.08117999;stroke:#0000ff;stroke-linecap:round;stroke-linejoin:round;enable-background:accumulate" />
  </g>
  <rect
     y="-5.3477054"
     x="-7.144186"
     height="1312.1488"
     width="873.97211"
     id="rect849"
     style="fill:#2c2c2d;fill-opacity:0.75294118;stroke:#ffffff;stroke-width:0;stroke-linejoin:bevel;stroke-miterlimit:4;stroke-dasharray:none;stroke-opacity:1" />
  <path
     id="path916"
     d="M -5.0568046,650.61487 V -4.2688622 H 430.73855 866.5339 V 650.61487 1305.4986 H 430.73855 -5.0568046 Z"
     style="fill:#043478;fill-opacity:1;stroke:#ffffff;stroke-width:0;stroke-linejoin:bevel;stroke-miterlimit:4;stroke-dasharray:none;stroke-opacity:1" />
  <g
     transform="translate(-821.58141,-373.87907)"
     id="g951">
    <path
       style="fill:#ffffff;fill-opacity:1;stroke:#ffffff;stroke-width:1px;stroke-linecap:butt;stroke-linejoin:miter;stroke-opacity:1"
       d="m 1145.4512,718.59649 19.0511,20.24186 42.2698,3.57209 14.8837,-15.47907 -7.7395,-10.71628 -59.5349,-6.54883 z"
       id="path918" />
    <path
       style="fill:#ffffff;fill-opacity:1;stroke:#ffffff;stroke-width:1px;stroke-linecap:butt;stroke-linejoin:miter;stroke-opacity:1"
       d="m 1258.2698,721.87091 -9.2279,7.44186 16.0744,18.45581 35.7209,1.78605 12.5024,-13.09768 -6.5489,-9.82325 z"
       id="path920" />
    <path
       style="fill:#ffffff;fill-opacity:1;stroke:#ffffff;stroke-width:1px;stroke-linecap:butt;stroke-linejoin:miter;stroke-opacity:1"
       d="m 1225.8233,732.28951 -15.1814,14.88372 -0.2977,41.07907 15.1814,17.56279 5.0605,-6.25116 -0.5954,-60.13023 z"
       id="path922" />
    <path
       style="fill:#ffffff;fill-opacity:1;stroke:#ffffff;stroke-width:1px;stroke-linecap:butt;stroke-linejoin:miter;stroke-opacity:1"
       d="m 1240.707,740.32672 -0.2977,57.45116 6.2512,8.33489 2.9767,-0.29768 9.8233,-14.28837 1.1907,-40.78139 -10.7163,-13.39535 -5.0605,-0.59535 z"
       id="path924" />
    <path
       style="fill:#ffffff;fill-opacity:1;stroke:#ffffff;stroke-width:1px;stroke-linecap:butt;stroke-linejoin:miter;stroke-opacity:1"
       d="m 1316.614,741.51742 -11.3117,12.20465 -1.1907,37.50698 10.121,15.47907 h 2.9767 l 3.8698,-5.06047 -0.2977,-54.47442 z"
       id="path926" />
    <path
       style="fill:#ffffff;fill-opacity:1;stroke:#ffffff;stroke-width:1px;stroke-linecap:butt;stroke-linejoin:miter;stroke-opacity:1"
       d="m 1315.7209,818.01975 -11.0139,13.99069 -0.893,38.99535 9.5256,11.90698 h 3.8697 l 2.6791,-5.35814 1.786,-52.68837 z"
       id="path928" />
    <path
       style="fill:#ffffff;fill-opacity:1;stroke:#ffffff;stroke-width:1px;stroke-linecap:butt;stroke-linejoin:miter;stroke-opacity:1"
       d="m 1249.9349,817.12672 h -4.7628 l -4.4651,6.54884 v 57.74884 l 5.6558,6.54883 c 0,0 13.693,-14.28837 14.2884,-15.47907 0.5953,-1.19069 1.1907,-39.88837 1.1907,-39.88837 z"
       id="path930" />
    <path
       style="fill:#ffffff;fill-opacity:1;stroke:#ffffff;stroke-width:1px;stroke-linecap:butt;stroke-linejoin:miter;stroke-opacity:1"
       d="m 1210.0465,798.37323 9.8233,11.31163 -8.6326,13.09768 -51.7953,0.59535 -12.5023,-15.1814 11.9069,-11.31163 z"
       id="path932" />
    <path
       style="fill:#ffffff;fill-opacity:1;stroke:#ffffff;stroke-width:1px;stroke-linecap:butt;stroke-linejoin:miter;stroke-opacity:1"
       d="m 1164.5023,881.4244 -16.3721,18.15814 5.3582,6.25116 61.3209,-2.08372 c 0,0 6.5489,-6.54884 5.6558,-8.03721 -0.893,-1.48837 -13.9907,-15.77674 -13.9907,-15.77674 z"
       id="path934" />
    <path
       style="fill:#ffffff;fill-opacity:1;stroke:#ffffff;stroke-width:1px;stroke-linecap:butt;stroke-linejoin:miter;stroke-opacity:1"
       d="m 1141.8791,815.043 15.7767,16.07442 0.5954,45.54419 -15.7768,18.15814 c 0,0 -7.1442,-6.25117 -7.4418,-8.63256 -0.2977,-2.3814 0.5953,-64.59535 0.5953,-64.59535 z"
       id="path936" />
    <path
       style="fill:#ffffff;fill-opacity:1;stroke:#ffffff;stroke-width:1px;stroke-linecap:butt;stroke-linejoin:miter;stroke-opacity:1"
       d="m 1252.0186,893.0337 14.5861,-18.15814 32.7442,-1.48837 11.0139,14.28837 -2.6791,9.22791 -50.9023,2.97674 z"
       id="path938" />
  </g>
</svg>
